<svg height="512" viewBox="0 0 54 60" width="512" xmlns="http://www.w3.org/2000/svg"><path id="Shape" d="m.54 54.868c4.883 3.056 13.384 4.379 19.148 4.841 9.433.757 25.847.118 33.772-4.841.3070186-.1916774.4865006-.5342927.4692848-.8958231-.0172157-.3615304-.2284418-.6855405-.5522848-.8471769-.842-.418-3.421-1.832-4.694-2.559-6.673-3.888-5.333-.081-12.683-7v-5.815c1.9-1.8 3.006-3.379 3.134-6.157 2.0784604-1.0489315 3.4797003-3.0840837 3.718-5.4.207-1.048.654-3.987-.449-5.437 1.1371275-2.0651074 1.6892863-4.4013237 1.597-6.757 0-4.51-2.315-6.45-4.049-7.272-.415-3.361-4.127-4.747-7.468-4.747-3.92 0-11.326 1.89-14.827-1.681-.398204-.38390834-1.028796-.38390834-1.427 0-1.4895428 1.80974192-2.2766691 4.09585185-2.217 6.439-1.737.83-4.012 2.772-4.012 7.261-.0910148 2.355921.4621631 4.6920606 1.6 6.757-1.1 1.451-.653 4.389-.45 5.435.2422542 2.3144584 1.6423125 4.3478944 3.718 5.4.126 2.749 1.21 4.336 3.134 6.159v5.819c-7.39 6.954-5.964 3.081-12.676 6.992-1.275.728-3.882 2.156-4.7 2.563-.3241917.1610556-.53603275.48474-.55387188.8462935-.01783912.3615535.16110924.7045195.46787188.8967065zm47.144-2.568c1.031.59 2.078 1.164 3.129 1.732-3.9680213 1.6672417-8.155231 2.7550473-12.433 3.23 1.7506447-2.0645115 2.9062902-4.5666241 3.343-7.238 1.728.589 2.525.276 5.961 2.276zm-6.8-26.445c-.0082484.0416111-.0139258.0836908-.017.126-.1400326 1.2864472-.7721118 2.4689084-1.764 3.3-.147-3.22.418-3.613.743-7.063.3034433-.1801199.6572463-.2566368 1.008-.218.297.392.371 2.133.026 3.853zm1.116-11.855c.1167452 2.1038186-.4013168 4.1941832-1.487 6-.1812205.0087291-.3616371.0297777-.54.063.045-1.425.026-3.026-.064-4.866-.0625394-1.4644702-.4462623-2.8972863-1.124-4.197.4566623-.6232023.7850134-1.33089053.966-2.082 1.485.99 2.249 2.682 2.249 5.082zm-24.892-11.529c4.43 3.325 11.777 1.51 15.375 1.51 2.37 0 4.391.785 5.149 2 .555.887.48 2.064-.22 3.5-.1285793.23436259-.301047.44179917-.508.611-2.304 1.908-10.304 1.908-13.333 1.908-3.762 0-7.571-1.736-7.571-5.055-.0366134-1.5634964.3459602-3.10829254 1.108-4.474zm-2.791 6.392c.2282195.68381905.5804274 1.3197592 1.039 1.876-.7708276 1.3650748-1.2045225 2.8944922-1.265 4.461-.09 1.853-.108 3.454-.062 4.866-.1785303-.0348628-.3593244-.056919-.541-.066-1.0863207-1.8055876-1.6047553-3.8960496-1.488-6 0-2.86 1.105-4.351 2.317-5.137zm-1.179 17.118c-.0029818-.0423761-.0089972-.084484-.018-.126-.36-1.819-.255-3.671.051-3.876.3406868-.0145375.6797891.0541067.988.2.322 3.574.9 3.744.742 7.092-.9879572-.829898-1.619143-2.0077772-1.763-3.29zm3.712 4.942c0-.891.09-1.879.09-2.9 0-3.232-1.27-4.075-.851-12.723.0387853-1.1041354.3039299-2.1885394.779-3.186 2.1936934 1.3729957 4.7591823 2.0319242 7.343 1.886 4.967 0 10.092-.26 12.978-1.76.4358537.9635073.6810322 2.0022899.722 3.059.2683237 3.2411371.100154 6.5036298-.5 9.7-.3358435 1.503718-.4370402 3.0503408-.3 4.585.123 2.7.061 4.387-2.27 6.5-3.397 3.089-3.424 5.916-6.141 5.916-4.747 0-4.7.414-6.6-2.375-.7172304-1.0938929-1.5380094-2.1162667-2.451-3.053-1.799-1.795-2.807-2.731-2.799-5.649zm1.15 15.355v1.722c0 .5522847.4477153 1 1 1s1-.4477153 1-1v-7.893c1.474 2.093 2.413 3.893 5.3 3.893 5.5 0 5.659.436 8.7-3.893v7.893c0 .5522847.4477153 1 1 1s1-.4477153 1-1v-1.722c1.1736997 1.1041194 2.4612404 2.0805855 3.841 2.913-.366 2.282-1.617 7.175-5.708 8.527-4.7442482.3754996-9.5107518.3754996-14.255 0-4.1-1.348-5.353-6.244-5.718-8.528 1.3792034-.8323953 2.6663807-1.8085048 3.84-2.912zm-11.677 6.016c3.413-1.987 4.24-1.685 5.954-2.27.4371469 2.6712419 1.5927407 5.1732426 3.343 7.238-4.2777735-.476111-8.46491335-1.564572-12.433-3.232 1.052-.568 2.09733333-1.1466667 3.136-1.736z"/></svg>